<?xml version="1.0" encoding="utf-8"?>
<!-- Generator: Adobe Illustrator 19.2.0, SVG Export Plug-In . SVG Version: 6.00 Build 0)  -->
<svg version="1.1" xmlns="http://www.w3.org/2000/svg" xmlns:xlink="http://www.w3.org/1999/xlink" x="0px" y="0px" width="370px"
     height="344px" viewBox="0 0 370 260" xml:space="preserve">
<g id="Background">
</g>
    <g id="Vertical">
</g>
    <g id="Horizontal">
</g>
    <g id="Dynatrace_Color">
</g>
    <g id="Variants">
	<g>
        <g>
			<path fill="#1496FF" d="M151,19.8c-2.7,14.5-6.2,35.9-8,57.6c-3.2,38.4-1.2,64-1.2,64l-53.9,51.3c0,0-4.2-28.8-6.3-61.2
				c-1.3-20-1.7-37.7-1.8-48.4c0-0.6,0.3-1.2,0.3-1.8c0-0.7,0.9-7.9,7.9-14.5C95.7,59.5,151.8,15.5,151,19.8z"/>
            <path fill="#1284EA" d="M151,19.8c-2.7,14.5-6.2,35.9-8,57.6c0,0-59.7-7.1-63.2,7.3c0-0.7,1-9.5,8-16.2
				C95.5,61.1,151.8,15.5,151,19.8z"/>
            <path fill="#B4DC00" d="M79.8,81.3c0,1,0,2.1,0,3.3c0.6-2.6,1.6-4.5,3.8-7.2c4.4-5.6,11.6-7.1,14.5-7.5
				c14.6-1.9,36.2-4.3,57.9-4.9c38.5-1.2,63.9,2,63.9,2l53.9-51.3c0,0-28.3-5.4-60.6-9.2c-21.1-2.5-39.7-3.8-50.1-4.4
				c-0.7,0-8.2-1-15.2,5.7c-7.7,7.3-46.3,43.9-61.8,58.7C79.3,73.1,79.8,80.6,79.8,81.3z"/>
            <path fill="#6F2DA8" d="M271.9,146.8c-14.6,2-36.1,4.4-57.9,5.1c-38.5,1.3-64-1.9-64-1.9L96,201.3c0,0,28.6,5.6,60.8,9.3
				c19.7,2.3,37.3,3.5,47.9,4.1c0.7,0,2-0.6,2.7-0.6c0.7,0,8.2-1.3,15.2-8C230.4,198.8,276.2,146.3,271.9,146.8z"/>
            <path fill="#591F91" d="M271.9,146.8c-14.6,2-36.1,4.4-57.9,5.1c0,0,4.2,60-10.4,62.7c0.7,0,10.6-0.5,17.6-7.1
				C228.9,200.2,276.2,146.3,271.9,146.8z"/>
            <path fill="#73BE28" d="M206.9,214.9c-1-0.1-2.1-0.1-3.3-0.2c2.7-0.5,4.5-1.4,7.4-3.4c5.8-4.2,7.7-11.2,8.2-14.1
				c2.6-14.5,6-35.9,7.8-57.6c3.1-38.4,1.1-63.9,1.1-63.9l53.9-51.3c0,0,4,28.5,6.2,60.9c1.4,21.2,1.8,39.8,1.9,50.2
				c0,0.7,0.6,8.2-6.4,14.9c-7.7,7.3-46.2,44.1-61.7,58.9C215.1,215.8,207.6,214.9,206.9,214.9z"/>
		</g>
	</g>
</g>
</svg>
